<?xml version="1.0" encoding="UTF-8" standalone="no"?>
<!-- Generator: Adobe Illustrator 16.0.0, SVG Export Plug-In . SVG Version: 6.00 Build 0)  -->

<svg
   xmlns:dc="http://purl.org/dc/elements/1.1/"
   xmlns:cc="http://creativecommons.org/ns#"
   xmlns:rdf="http://www.w3.org/1999/02/22-rdf-syntax-ns#"
   xmlns:svg="http://www.w3.org/2000/svg"
   xmlns="http://www.w3.org/2000/svg"
   xmlns:xlink="http://www.w3.org/1999/xlink"
   xmlns:sodipodi="http://sodipodi.sourceforge.net/DTD/sodipodi-0.dtd"
   xmlns:inkscape="http://www.inkscape.org/namespaces/inkscape"
   version="1.1"
   id="Capa_1"
   x="0px"
   y="0px"
   width="512px"
   height="512px"
   viewBox="0 0 512 512"
   style="enable-background:new 0 0 512 512;"
   xml:space="preserve"
   sodipodi:docname="auto-counter-marker.svg"
   inkscape:version="0.92.4 (33fec40, 2019-01-16)"
   inkscape:export-filename="/home/wiley/experiments/leafletjs-experiment/images/auto-marker.png"
   inkscape:export-xdpi="7.0697722"
   inkscape:export-ydpi="7.0697722"><metadata
   id="metadata3847"><rdf:RDF><cc:Work
       rdf:about=""><dc:format>image/svg+xml</dc:format><dc:type
         rdf:resource="http://purl.org/dc/dcmitype/StillImage" /><dc:title></dc:title></cc:Work></rdf:RDF></metadata><defs
   id="defs3845"><linearGradient
     inkscape:collect="always"
     id="linearGradient4790"><stop
       style="stop-color:#d45500;stop-opacity:1"
       offset="0"
       id="stop4786" /><stop
       style="stop-color:#d45500;stop-opacity:0.60526317"
       offset="1"
       id="stop4788" /></linearGradient><linearGradient
     inkscape:collect="always"
     xlink:href="#linearGradient4790"
     id="linearGradient4796"
     x1="256"
     y1="512"
     x2="256"
     y2="0"
     gradientUnits="userSpaceOnUse" /></defs><sodipodi:namedview
   pagecolor="#ffffff"
   bordercolor="#666666"
   borderopacity="1"
   objecttolerance="10"
   gridtolerance="10"
   guidetolerance="10"
   inkscape:pageopacity="0"
   inkscape:pageshadow="2"
   inkscape:window-width="1853"
   inkscape:window-height="1016"
   id="namedview3843"
   showgrid="false"
   inkscape:zoom="1.6289062"
   inkscape:cx="120.39021"
   inkscape:cy="290.90277"
   inkscape:window-x="67"
   inkscape:window-y="27"
   inkscape:window-maximized="1"
   inkscape:current-layer="g4866" />
<g
   id="g3810">
	<path
   d="M 256,0 C 167.641,0 96,71.625 96,160 c 0,24.75 5.625,48.219 15.672,69.125 C 112.234,230.313 256,512 256,512 L 398.594,232.625 C 409.719,210.844 416,186.156 416,160 416,71.625 344.375,0 256,0 Z"
   id="path3808"
   inkscape:connector-curvature="0"
   sodipodi:nodetypes="sscccss"
   style="fill:url(#linearGradient4796);stroke:#e58e46;stroke-opacity:1;stroke-width:5.33333333;stroke-miterlimit:4;stroke-dasharray:none;fill-opacity:1;stroke-dashoffset:0"
   inkscape:export-filename="/home/wiley/experiments/leafletjs-experiment/images/auto-marker.png"
   inkscape:export-xdpi="7.0697722"
   inkscape:export-ydpi="7.0697722" />
<g
   id="g4866"
   transform="matrix(7.5381295,0,0,7.5381295,179.69784,93.136689)"><path
     id="path4852"
     d="M 0,0 H 20 V 20 H 0 Z"
     inkscape:connector-curvature="0"
     style="fill:none" /><path
     id="path4854"
     d="m 16.072161,10.78 c 0.03,-0.25 0.05,-0.51 0.05,-0.78 0,-0.27 -0.02,-0.53 -0.06,-0.78 l 1.69,-1.32 c 0.15,-0.12 0.19,-0.34 0.1,-0.51 l -1.6,-2.77 c -0.1,-0.18 -0.31,-0.24 -0.49,-0.18 l -1.99,0.8 c -0.42,-0.32 -0.86,-0.58 -1.35,-0.78 l -0.3,-2.12 c -0.03,-0.2 -0.2,-0.34 -0.4,-0.34 H 8.5221609 c -0.2,0 -0.36,0.14 -0.39,0.34 l -0.3,2.12 c -0.49,0.2 -0.94,0.47 -1.35,0.78 l -1.99,-0.8 c -0.18,-0.07 -0.39,0 -0.49,0.18 l -1.6,2.77 c -0.1,0.18 -0.06,0.39 0.1,0.51 l 1.69,1.32 c -0.04,0.25 -0.07,0.52 -0.07,0.78 0,0.26 0.02,0.53 0.06,0.78 l -1.69,1.32 c -0.15,0.12 -0.19,0.34 -0.1,0.51 l 1.6,2.77 c 0.1,0.18 0.31,0.24 0.49,0.18 l 1.99,-0.8 c 0.42,0.32 0.86,0.58 1.35,0.78 l 0.3,2.12 c 0.04,0.2 0.2,0.34 0.4,0.34 h 3.2000001 c 0.2,0 0.37,-0.14 0.39,-0.34 l 0.3,-2.12 c 0.49,-0.2 0.94,-0.47 1.35,-0.78 l 1.99,0.8 c 0.18,0.07 0.39,0 0.49,-0.18 l 1.6,-2.77 c 0.1,-0.18 0.06,-0.39 -0.1,-0.51 z m -5.95,2.22 c -1.6500001,0 -3.0000001,-1.35 -3.0000001,-3 0,-1.65 1.35,-3 3.0000001,-3 1.65,0 3,1.35 3,3 0,1.65 -1.35,3 -3,3 z"
     inkscape:connector-curvature="0"
     style="fill:#ffffff" /></g></g>
<g
   id="g3812">
</g>
<g
   id="g3814">
</g>
<g
   id="g3816">
</g>
<g
   id="g3818">
</g>
<g
   id="g3820">
</g>
<g
   id="g3822">
</g>
<g
   id="g3824">
</g>
<g
   id="g3826">
</g>
<g
   id="g3828">
</g>
<g
   id="g3830">
</g>
<g
   id="g3832">
</g>
<g
   id="g3834">
</g>
<g
   id="g3836">
</g>
<g
   id="g3838">
</g>
<g
   id="g3840">
</g>
</svg>