<?xml version="1.0" encoding="UTF-8" standalone="no"?>
<!-- Generator: Adobe Illustrator 16.0.0, SVG Export Plug-In . SVG Version: 6.00 Build 0)  -->

<svg
   xmlns:dc="http://purl.org/dc/elements/1.1/"
   xmlns:cc="http://creativecommons.org/ns#"
   xmlns:rdf="http://www.w3.org/1999/02/22-rdf-syntax-ns#"
   xmlns:svg="http://www.w3.org/2000/svg"
   xmlns="http://www.w3.org/2000/svg"
   xmlns:xlink="http://www.w3.org/1999/xlink"
   xmlns:sodipodi="http://sodipodi.sourceforge.net/DTD/sodipodi-0.dtd"
   xmlns:inkscape="http://www.inkscape.org/namespaces/inkscape"
   version="1.1"
   id="Capa_1"
   x="0px"
   y="0px"
   width="512px"
   height="512px"
   viewBox="0 0 512 512"
   style="enable-background:new 0 0 512 512;"
   xml:space="preserve"
   sodipodi:docname="map-marker.svg"
   inkscape:version="0.92.4 (33fec40, 2019-01-16)"><metadata
   id="metadata3847"><rdf:RDF><cc:Work
       rdf:about=""><dc:format>image/svg+xml</dc:format><dc:type
         rdf:resource="http://purl.org/dc/dcmitype/StillImage" /></cc:Work></rdf:RDF></metadata><defs
   id="defs3845"><linearGradient
     inkscape:collect="always"
     id="linearGradient4790"><stop
       style="stop-color:#0000c3;stop-opacity:1"
       offset="0"
       id="stop4786" /><stop
       style="stop-color:#0000aa;stop-opacity:0.64676619"
       offset="1"
       id="stop4788" /></linearGradient><linearGradient
     inkscape:collect="always"
     xlink:href="#linearGradient4790"
     id="linearGradient4796"
     x1="256"
     y1="512"
     x2="256"
     y2="0"
     gradientUnits="userSpaceOnUse" /></defs><sodipodi:namedview
   pagecolor="#ffffff"
   bordercolor="#666666"
   borderopacity="1"
   objecttolerance="10"
   gridtolerance="10"
   guidetolerance="10"
   inkscape:pageopacity="0"
   inkscape:pageshadow="2"
   inkscape:window-width="1853"
   inkscape:window-height="1016"
   id="namedview3843"
   showgrid="false"
   inkscape:zoom="1.6289062"
   inkscape:cx="154.09113"
   inkscape:cy="256"
   inkscape:window-x="67"
   inkscape:window-y="27"
   inkscape:window-maximized="1"
   inkscape:current-layer="g3810" />
<g
   id="g3810">
	<path
   d="M 256,0 C 167.641,0 96,71.625 96,160 c 0,24.75 5.625,48.219 15.672,69.125 C 112.234,230.313 256,512 256,512 L 398.594,232.625 C 409.719,210.844 416,186.156 416,160 416,71.625 344.375,0 256,0 Z"
   id="path3808"
   inkscape:connector-curvature="0"
   sodipodi:nodetypes="sscccss"
   style="fill:url(#linearGradient4796);stroke:#0000bc;stroke-opacity:1;stroke-width:2.5;stroke-miterlimit:4;stroke-dasharray:none;fill-opacity:1" />
<g
   id="g3971"
   transform="matrix(7.9320544,0,0,7.9320544,-202.92566,79.472423)"><path
     id="path3957"
     d="m 12,12 c 2.21,0 4,-1.79 4,-4 C 16,5.79 14.21,4 12,4 9.79,4 8,5.79 8,8 c 0,2.21 1.79,4 4,4 z m 0,2 c -2.67,0 -8,1.34 -8,4 v 2 h 16 v -2 c 0,-2.66 -5.33,-4 -8,-4 z"
     inkscape:connector-curvature="0" /><path
     id="path3959"
     d="M 0,0 H 24 V 24 H 0 Z"
     inkscape:connector-curvature="0"
     style="fill:none" /></g><g
   id="g3979"
   transform="translate(6.446025,-6.7529976)"
   style="stroke-width:2;stroke-miterlimit:4;stroke-dasharray:none;stroke:#0000bc;stroke-opacity:1"><path
     inkscape:connector-curvature="0"
     id="path3973"
     d="m 240.89678,159.56147 c -11.46071,-3.28104 -20.60218,-13.77462 -22.38735,-25.69865 -2.28158,-15.23971 7.69562,-30.48472 22.66805,-34.636445 14.45452,-4.00812 29.73798,2.865895 36.3356,16.342605 4.59815,9.39247 4.59815,18.29354 0,27.68601 -2.66706,5.4479 -7.26838,10.39188 -12.53599,13.46953 -6.61678,3.86591 -16.4426,5.02351 -24.08031,2.83695 z"
     style="fill:#ffffff;stroke-width:2;stroke-miterlimit:4;stroke-dasharray:none;stroke:#0000bc;stroke-opacity:1" /><path
     inkscape:connector-curvature="0"
     id="path3975"
     d="m 186.64178,214.8988 c 0.0146,-10.49202 0.45758,-12.36731 4.02641,-17.04628 6.57919,-8.62577 26.4736,-16.87055 47.44474,-19.66238 8.40811,-1.11935 14.31387,-1.11353 22.92037,0.0226 21.10708,2.7863 40.76262,10.9293 47.40643,19.63978 3.56882,4.67897 4.01178,6.55426 4.02641,17.04628 l 0.0135,9.66906 h -62.92567 -62.92566 z"
     style="fill:#ffffff;stroke-width:2;stroke-miterlimit:4;stroke-dasharray:none;stroke:#0000bc;stroke-opacity:1" /></g></g>
<g
   id="g3812">
</g>
<g
   id="g3814">
</g>
<g
   id="g3816">
</g>
<g
   id="g3818">
</g>
<g
   id="g3820">
</g>
<g
   id="g3822">
</g>
<g
   id="g3824">
</g>
<g
   id="g3826">
</g>
<g
   id="g3828">
</g>
<g
   id="g3830">
</g>
<g
   id="g3832">
</g>
<g
   id="g3834">
</g>
<g
   id="g3836">
</g>
<g
   id="g3838">
</g>
<g
   id="g3840">
</g>
</svg>